# xmcd
#
# Track frame offsets: 
#        150
#        21013
#        35051
#        55503
#        64696
#        82111
#        97167
#        113926
#        129324
#        145826
#        163424
#        179600
#        192791
#
# Disc length: 2773 seconds
#
# Revision: 0
# Processed by: cddbd v1.5.2PL0 Copyright (c) Steve Scherf et al.
# Submitted via: ExactAudioCopyFreeDBPlugin 1.0
#
DISCID=b90ad30d
DTITLE=Various Artist - WGRD Bootleg 2006
DYEAR=2006
DGENRE=Blues
TTITLE0=Fray - How To Save A Life
TTITLE1=Hawthorne Heights - Saying Sorry
TTITLE2=Dresden Dolls - Sing
TTITLE3=FlyLeaf - Much Like Falling
TTITLE4=Under The Influence Of Giants - Mamas Room
TTITLE5=Shinedown - Save Me
TTITLE6=Pop Evil - Somebody Like You
TTITLE7=Fled Five - Good Man Gone Bad
TTITLE8=Smile Empty Soul - The Hit
TTITLE9=SugarCult - Memory
TTITLE10=Gin Blossoms - Learning The Hard Way
TTITLE11=Johnnys Little Rocketship - Wish Again
TTITLE12=Dashboard Confessional - Vindicated
EXTD=
EXTT0=
EXTT1=
EXTT2=
EXTT3=
EXTT4=
EXTT5=
EXTT6=
EXTT7=
EXTT8=
EXTT9=
EXTT10=
EXTT11=
EXTT12=
PLAYORDER=
